<svg xmlns="http://www.w3.org/2000/svg" version="1.1" xmlns:xlink="http://www.w3.org/1999/xlink" xmlns:svgjs="http://svgjs.dev/svgjs" width="1500" height="1333" viewBox="0 0 1500 1333"><g transform="matrix(1,0,0,1,-0.1926070255152581,-2.1499999999999773)"><svg viewBox="0 0 279 248" data-background-color="#398378" preserveAspectRatio="xMidYMid meet" height="1333" width="1500" xmlns="http://www.w3.org/2000/svg" xmlns:xlink="http://www.w3.org/1999/xlink"><g id="tight-bounds" transform="matrix(1,0,0,1,0.035824906745830276,0.4000000000000057)"><svg viewBox="0 0 278.92835018650834 247.2" height="247.2" width="278.92835018650834"><g><svg viewBox="0 0 395.52 350.52924500009897" height="247.2" width="278.92835018650834"><g transform="matrix(1,0,0,1,0,254.593018104758)"><svg viewBox="0 0 395.52 95.93622689534097" height="95.93622689534097" width="395.52"><g id="textblocktransform"><svg viewBox="0 0 395.52 95.93622689534097" height="95.93622689534097" width="395.52" id="textblock"><g><svg viewBox="0 0 395.52 51.74341661039837" height="51.74341661039837" width="395.52"><g transform="matrix(1,0,0,1,0,0)"><svg width="395.52" viewBox="2.2 -37.75 296.17 38.75000000000001" height="51.74341661039837" data-palette-color="#ffffff"><path d="M29.6-5.45L29.6-5.45Q30.25-5.25 30.48-4.8 30.7-4.35 30.75-3.8L30.75-3.8Q28.45-1.5 25.55-0.25 22.65 1 19.35 1L19.35 1Q16 1 12.93-0.1 9.85-1.2 7.43-3.48 5-5.75 3.6-9.22 2.2-12.7 2.2-17.5L2.2-17.5Q2.2-22.25 3.78-25.73 5.35-29.2 7.93-31.48 10.5-33.75 13.63-34.88 16.75-36 19.85-36L19.85-36Q23.5-36 26.23-35.43 28.95-34.85 30.95-33.75L30.95-33.75Q31.05-31.45 30.58-29.45 30.1-27.45 29.4-25.55L29.4-25.55Q28.9-25.5 28.3-25.55 27.7-25.6 27.2-25.8L27.2-25.8 26.65-32.25Q25-32.95 23.5-33.15 22-33.35 20.2-33.35L20.2-33.35Q16.7-33.35 13.93-31.25 11.15-29.15 9.58-25.55 8-21.95 8-17.5L8-17.5Q8-12.8 9.35-9.22 10.7-5.65 13.35-3.65 16-1.65 19.9-1.65L19.9-1.65Q23-1.65 25.35-2.75 27.7-3.85 29.6-5.45ZM42.3-16.85L42.3-2.5 47.15-1.5Q47.3-0.55 46.9 0.25L46.9 0.25Q46 0.2 44.67 0.15 43.35 0.1 42.05 0.05 40.75 0 39.8 0L39.8 0Q38.4 0 36.75 0.08 35.1 0.15 33.7 0.25L33.7 0.25Q33.55-0.7 33.8-1.5L33.8-1.5Q34.75-1.75 35.67-1.95 36.6-2.15 37.3-2.5L37.3-2.5 37.3-22 33.15-22.4Q33-23.4 33.4-24.15L33.4-24.15Q35.2-24.4 37.02-24.75 38.85-25.1 40.4-25.5L40.4-25.5Q40.9-25.45 41.22-25.33 41.55-25.2 42.05-24.95L42.05-24.95 42.05-20.4 42.1-20.35Q43.65-22.65 45.57-24.25 47.5-25.85 49.7-25.85L49.7-25.85Q50.55-25.85 51.37-25.73 52.2-25.6 53-25.1L53-25.1Q53.1-23.05 52.82-21.2 52.55-19.35 52-17.6L52-17.6Q51.65-17.55 50.9-17.57 50.15-17.6 49.75-17.8L49.75-17.8 49.05-22.8Q47.3-22.8 45.52-21.53 43.75-20.25 42.3-16.85L42.3-16.85ZM62.45 0.85L62.45 0.85Q59.45 0.85 57.4-0.73 55.35-2.3 55.35-5.5L55.35-5.5Q55.35-8 56.57-9.6 57.8-11.2 59.87-12.08 61.95-12.95 64.5-13.25 67.05-13.55 69.7-13.5L69.7-13.5 69.75-17.9Q69.8-20.7 68.7-22.23 67.6-23.75 65.35-23.75L65.35-23.75Q64.1-23.75 62.95-23.58 61.8-23.4 60.65-23L60.65-23 60-17.7Q59.6-17.5 58.9-17.48 58.2-17.45 57.8-17.5L57.8-17.5Q57.35-19.15 57.05-20.8 56.75-22.45 56.8-24L56.8-24Q59.15-25.1 61.52-25.55 63.9-26 66.7-26L66.7-26Q69.5-26 71.22-25.1 72.95-24.2 73.77-22 74.6-19.8 74.6-15.85L74.6-15.85 74.6-2.45Q75.45-2.05 76.35-1.88 77.25-1.7 78.1-1.45L78.1-1.45Q78.25-0.5 77.85 0.3L77.85 0.3Q77.05 0.45 75.92 0.55 74.8 0.65 73.65 0.65L73.65 0.65Q72 0.65 70.8 0.35L70.8 0.35 70.1-2.25 69.9-2.25Q68.65-0.95 66.8-0.05 64.95 0.85 62.45 0.85ZM64.35-1.9L64.35-1.9Q65.75-1.9 67.35-2.78 68.95-3.65 69.7-4.75L69.7-4.75 69.7-11.5Q64.55-11.5 62.45-10.28 60.35-9.05 60.35-6L60.35-6Q60.35-3.95 61.45-2.93 62.55-1.9 64.35-1.9ZM94.94-31L94.39-35.4Q93.44-35.8 92.44-35.8L92.44-35.8Q90.44-35.8 89.49-33.73 88.54-31.65 88.54-28L88.54-28 88.54-23.75 95.54-23.75Q95.54-23.15 95.42-22.4 95.29-21.65 95.04-21.25L95.04-21.25 88.54-21.25 88.54-2.5 93.39-1.5Q93.54-0.55 93.14 0.25L93.14 0.25Q92.24 0.2 90.92 0.15 89.59 0.1 88.29 0.05 86.99 0 86.04 0L86.04 0Q84.64 0 82.99 0.08 81.34 0.15 79.94 0.25L79.94 0.25Q79.79-0.7 80.04-1.5L80.04-1.5Q80.94-1.7 81.84-1.93 82.74-2.15 83.54-2.5L83.54-2.5 83.54-21.25 80.29-21.25Q80.24-21.75 80.42-22.63 80.59-23.5 80.79-23.75L80.79-23.75 83.54-23.75 83.54-26.75Q83.54-31.85 85.89-34.8 88.24-37.75 92.04-37.75L92.04-37.75Q94.04-37.75 95.32-37.43 96.59-37.1 97.94-36.25L97.94-36.25Q97.79-34.85 97.57-33.48 97.34-32.1 96.99-30.8L96.99-30.8Q96.64-30.75 95.99-30.78 95.34-30.8 94.94-31L94.94-31ZM106.39 0.8L106.39 0.8Q104.79 0.8 103.49 0.2 102.19-0.4 101.47-1.88 100.74-3.35 100.74-5.95L100.74-5.95 100.74-21.9 97.24-21.9Q96.94-22.45 96.92-23.03 96.89-23.6 96.99-24.15L96.99-24.15Q99.09-24.15 100.14-24.7 101.19-25.25 101.77-26.6 102.34-27.95 102.99-30.25L102.99-30.25 105.64-30.25 105.64-24.65 110.89-24.65Q111.59-23.2 110.89-21.9L110.89-21.9 105.64-21.9 105.64-7.2Q105.64-4.9 105.87-3.73 106.09-2.55 106.64-2.13 107.19-1.7 108.14-1.7L108.14-1.7Q108.94-1.7 109.69-2 110.44-2.3 111.14-2.7L111.14-2.7Q111.84-2.25 111.89-1.2L111.89-1.2Q111.34-0.55 109.89 0.13 108.44 0.8 106.39 0.8ZM141.99-5.45L141.99-5.45Q142.64-5.25 142.86-4.8 143.09-4.35 143.14-3.8L143.14-3.8Q140.84-1.5 137.94-0.25 135.04 1 131.74 1L131.74 1Q128.39 1 125.31-0.1 122.24-1.2 119.81-3.48 117.39-5.75 115.99-9.22 114.59-12.7 114.59-17.5L114.59-17.5Q114.59-22.25 116.16-25.73 117.74-29.2 120.31-31.48 122.89-33.75 126.01-34.88 129.14-36 132.24-36L132.24-36Q135.89-36 138.61-35.43 141.34-34.85 143.34-33.75L143.34-33.75Q143.44-31.45 142.96-29.45 142.49-27.45 141.79-25.55L141.79-25.55Q141.29-25.5 140.69-25.55 140.09-25.6 139.59-25.8L139.59-25.8 139.04-32.25Q137.39-32.95 135.89-33.15 134.39-33.35 132.59-33.35L132.59-33.35Q129.09-33.35 126.31-31.25 123.54-29.15 121.96-25.55 120.39-21.95 120.39-17.5L120.39-17.5Q120.39-12.8 121.74-9.22 123.09-5.65 125.74-3.65 128.39-1.65 132.29-1.65L132.29-1.65Q135.39-1.65 137.74-2.75 140.09-3.85 141.99-5.45ZM146.49-12.5L146.49-12.5Q146.49-16.4 148.01-19.45 149.54-22.5 152.39-24.25 155.24-26 159.09-26L159.09-26Q162.99-26 165.81-24.25 168.64-22.5 170.16-19.45 171.69-16.4 171.69-12.5L171.69-12.5Q171.69-8.5 170.16-5.45 168.64-2.4 165.81-0.7 162.99 1 159.09 1L159.09 1Q155.24 1 152.39-0.7 149.54-2.4 148.01-5.45 146.49-8.5 146.49-12.5ZM166.29-11.8L166.29-11.8Q166.29-15.15 165.54-17.88 164.79-20.6 163.19-22.23 161.59-23.85 158.99-23.85L158.99-23.85Q156.34-23.85 154.76-22.25 153.19-20.65 152.54-18 151.89-15.35 151.89-12.15L151.89-12.15Q151.89-9.25 152.64-6.73 153.39-4.2 155.01-2.68 156.64-1.15 159.19-1.15L159.19-1.15Q161.89-1.15 163.44-2.65 164.99-4.15 165.64-6.6 166.29-9.05 166.29-11.8ZM183.23-25.05L183.08-21.65 183.13-21.6Q185.53-24 188.08-24.9 190.63-25.8 192.53-25.8L192.53-25.8Q195.78-25.8 197.66-23.95 199.53-22.1 199.53-18.55L199.53-18.55 199.58-2.5 203.08-1.5Q203.23-0.55 202.83 0.25L202.83 0.25Q201.48 0.15 199.98 0.08 198.48 0 197.08 0L197.08 0Q195.68 0 194.13 0.08 192.58 0.15 191.18 0.25L191.18 0.25Q191.03-0.7 191.28-1.5L191.28-1.5Q192.28-1.7 193.06-1.95 193.83-2.2 194.58-2.5L194.58-2.5 194.58-16.3Q194.58-19.7 193.53-21 192.48-22.3 190.18-22.3L190.18-22.3Q188.33-22.3 186.58-21.58 184.83-20.85 183.48-19.3L183.48-19.3 183.48-2.5 186.83-1.5Q186.98-0.55 186.58 0.25L186.58 0.25Q185.23 0.15 183.81 0.08 182.38 0 180.98 0L180.98 0Q179.58 0 177.93 0.08 176.28 0.15 174.88 0.25L174.88 0.25Q174.73-0.7 174.98-1.5L174.98-1.5Q175.88-1.75 176.78-1.98 177.68-2.2 178.48-2.5L178.48-2.5 178.48-22 174.33-22.4Q174.18-23.4 174.58-24.15L174.58-24.15Q176.43-24.45 178.18-24.8 179.93-25.15 181.53-25.5L181.53-25.5Q182.38-25.45 183.23-25.05L183.23-25.05ZM213.38-25.05L213.23-21.65 213.28-21.6Q215.68-24 218.23-24.9 220.78-25.8 222.68-25.8L222.68-25.8Q225.93-25.8 227.81-23.95 229.68-22.1 229.68-18.55L229.68-18.55 229.73-2.5 233.23-1.5Q233.38-0.55 232.98 0.25L232.98 0.25Q231.63 0.15 230.13 0.08 228.63 0 227.23 0L227.23 0Q225.83 0 224.28 0.08 222.73 0.15 221.33 0.25L221.33 0.25Q221.18-0.7 221.43-1.5L221.43-1.5Q222.43-1.7 223.21-1.95 223.98-2.2 224.73-2.5L224.73-2.5 224.73-16.3Q224.73-19.7 223.68-21 222.63-22.3 220.33-22.3L220.33-22.3Q218.48-22.3 216.73-21.58 214.98-20.85 213.63-19.3L213.63-19.3 213.63-2.5 216.98-1.5Q217.13-0.55 216.73 0.25L216.73 0.25Q215.38 0.15 213.96 0.08 212.53 0 211.13 0L211.13 0Q209.73 0 208.08 0.08 206.43 0.15 205.03 0.25L205.03 0.25Q204.88-0.7 205.13-1.5L205.13-1.5Q206.03-1.75 206.93-1.98 207.83-2.2 208.63-2.5L208.63-2.5 208.63-22 204.48-22.4Q204.33-23.4 204.73-24.15L204.73-24.15Q206.58-24.45 208.33-24.8 210.08-25.15 211.68-25.5L211.68-25.5Q212.53-25.45 213.38-25.05L213.38-25.05ZM240.93-13.5L240.93-12.5Q240.93-7.45 242.95-4.67 244.98-1.9 248.48-1.9L248.48-1.9Q250.03-1.9 251.08-2.08 252.13-2.25 253.15-2.75 254.18-3.25 255.48-4.15L255.48-4.15Q256.28-3.8 256.38-2.95L256.38-2.95Q254.83-1.15 252.68-0.15 250.53 0.85 248.33 0.85L248.33 0.85Q244.53 0.85 241.68-0.75 238.83-2.35 237.23-5.35 235.63-8.35 235.63-12.5L235.63-12.5Q235.63-16.75 237.3-19.73 238.98-22.7 241.8-24.28 244.63-25.85 248.08-25.85L248.08-25.85Q252.53-25.85 254.65-22.88 256.78-19.9 256.78-15.2L256.78-15.2Q256.78-14.85 256.78-14.55 256.78-14.25 256.73-13.9L256.73-13.9 256.03-13.35 240.93-13.5ZM248.03-23.7L248.03-23.7Q246.58-23.7 245.15-22.8 243.73-21.9 242.63-20.1 241.53-18.3 241.13-15.55L241.13-15.55 252.03-16.15Q252.03-20 251.2-21.85 250.38-23.7 248.03-23.7ZM278.03-17.7L277.38-23Q276.63-23.35 275.55-23.53 274.48-23.7 273.63-23.7L273.63-23.7Q270.98-23.7 269.23-22.28 267.48-20.85 266.6-18.32 265.73-15.8 265.73-12.5L265.73-12.5Q265.73-8.75 266.75-6.4 267.78-4.05 269.5-2.95 271.23-1.85 273.33-1.85L273.33-1.85Q274.98-1.85 276.75-2.48 278.53-3.1 280.23-4.2L280.23-4.2Q280.63-3.95 280.83-3.63 281.03-3.3 281.13-2.9L281.13-2.9Q279.28-0.95 277.05-0.05 274.83 0.85 272.58 0.85L272.58 0.85Q269.48 0.85 266.68-0.7 263.88-2.25 262.13-5.25 260.38-8.25 260.38-12.5L260.38-12.5Q260.38-16.9 262.15-19.88 263.93-22.85 266.93-24.38 269.93-25.9 273.48-25.9L273.48-25.9Q275.38-25.9 277.33-25.53 279.28-25.15 281.23-24.3L281.23-24.3Q281.23-20.6 280.23-17.5L280.23-17.5Q280.03-17.45 279.83-17.45 279.63-17.45 279.43-17.45L279.43-17.45Q279.08-17.45 278.73-17.5 278.38-17.55 278.03-17.7L278.03-17.7ZM292.87 0.8L292.87 0.8Q291.27 0.8 289.97 0.2 288.67-0.4 287.95-1.88 287.22-3.35 287.22-5.95L287.22-5.95 287.22-21.9 283.72-21.9Q283.42-22.45 283.4-23.03 283.37-23.6 283.47-24.15L283.47-24.15Q285.57-24.15 286.62-24.7 287.67-25.25 288.25-26.6 288.82-27.95 289.47-30.25L289.47-30.25 292.12-30.25 292.12-24.65 297.37-24.65Q298.07-23.2 297.37-21.9L297.37-21.9 292.12-21.9 292.12-7.2Q292.12-4.9 292.35-3.73 292.57-2.55 293.12-2.13 293.67-1.7 294.62-1.7L294.62-1.7Q295.42-1.7 296.17-2 296.92-2.3 297.62-2.7L297.62-2.7Q298.32-2.25 298.37-1.2L298.37-1.2Q297.82-0.55 296.37 0.13 294.92 0.8 292.87 0.8Z" opacity="1" transform="matrix(1,0,0,1,0,0)" fill="#ffffff" class="wordmark-text-0" data-fill-palette-color="primary" id="text-0"></path></svg></g></svg></g><g transform="matrix(1,0,0,1,96.81320858597684,63.958795430114776)"><svg viewBox="0 0 201.8935828280463 31.977431465226193" height="31.977431465226193" width="201.8935828280463"><g transform="matrix(1,0,0,1,0,0)"><svg width="201.8935828280463" viewBox="1.5 -37.3 315.02 49.9" height="31.977431465226193" data-palette-color="#ffffff"><path d="M10.9 0L10.9-31.85 1.5-31.85 1.5-36.75 25.95-36.75 25.95-31.85 16.45-31.85 16.45 0 10.9 0ZM37.15 0.5Q34.05 0.5 31.42-0.98 28.8-2.45 27.22-5.18 25.65-7.9 25.65-11.55L25.65-11.55Q25.65-15.15 27.02-17.85 28.4-20.55 30.95-22.05 33.5-23.55 36.95-23.55L36.95-23.55Q38.95-23.55 40.7-22.85 42.45-22.15 43.65-21.13 44.85-20.1 45.25-19.1L45.25-19.1 45.35-22.95 50.5-22.95 50.5 0 45.4 0 45.3-4.05Q44.45-2.25 42.2-0.88 39.95 0.5 37.15 0.5L37.15 0.5ZM38.05-4Q40.9-4 42.85-5.98 44.8-7.95 44.8-11.15L44.8-11.15 44.8-11.5Q44.8-13.65 43.9-15.35 43-17.05 41.45-18 39.9-18.95 38.05-18.95L38.05-18.95Q34.85-18.95 33.1-16.88 31.35-14.8 31.35-11.5L31.35-11.5Q31.35-8.15 33.07-6.08 34.8-4 38.05-4L38.05-4ZM58.2 0L58.2-36.75 63.55-36.75 63.55 0 58.2 0ZM81.99 0.5Q77.89 0.5 75.14-1.13 72.39-2.75 71.09-5.48 69.79-8.2 69.79-11.45L69.79-11.45Q69.79-15.1 71.32-17.85 72.84-20.6 75.54-22.08 78.24-23.55 81.64-23.55L81.64-23.55Q86.94-23.55 89.52-20.63 92.09-17.7 92.09-12.4L92.09-12.4Q92.09-11.05 91.94-9.6L91.94-9.6 75.44-9.6Q75.99-6.55 77.62-5.2 79.24-3.85 82.14-3.85L82.14-3.85Q84.54-3.85 86.09-4.25 87.64-4.65 88.94-5.35L88.94-5.35 90.59-1.5Q89.34-0.7 87.19-0.1 85.04 0.5 81.99 0.5L81.99 0.5ZM75.44-13.35L86.84-13.35Q86.89-16.45 85.49-17.73 84.09-19 81.49-19L81.49-19Q76.24-19 75.44-13.35L75.44-13.35ZM97.74 0L97.74-22.95 103.04-22.95 103.09-18.75Q104.04-20.85 106.09-22.2 108.14-23.55 110.89-23.55L110.89-23.55Q114.44-23.55 116.34-22.08 118.24-20.6 118.89-17.95 119.54-15.3 119.54-11.05L119.54-11.05 119.54 0 114.14 0 114.14-10.9Q114.14-15.25 113.29-17.18 112.44-19.1 109.79-19.1L109.79-19.1Q108.29-19.1 106.74-18.18 105.19-17.25 104.17-15.5 103.14-13.75 103.14-11.4L103.14-11.4 103.14 0 97.74 0ZM128.49 0L128.49-18.55 124.44-18.55 124.44-22.95 128.49-22.95 128.49-32.3 133.94-33.5 133.94-22.95 139.24-22.95 139.24-18.55 133.94-18.55 133.94 0 128.49 0ZM173.38 0.5Q167.93 0.5 163.63-2 159.33-4.5 156.91-8.88 154.48-13.25 154.48-18.7L154.48-18.7Q154.48-24 156.93-28.25 159.38-32.5 163.73-34.9 168.08-37.3 173.53-37.3L173.53-37.3Q176.48-37.3 178.86-36.77 181.23-36.25 182.73-35.58 184.23-34.9 184.78-34.4L184.78-34.4 182.58-29.7Q179.48-32.2 173.43-32.2L173.43-32.2Q169.43-32.2 166.48-30.45 163.53-28.7 161.98-25.7 160.43-22.7 160.43-19L160.43-19Q160.43-14.8 162.11-11.5 163.78-8.2 166.76-6.38 169.73-4.55 173.48-4.55L173.48-4.55Q175.83-4.55 177.98-5.13 180.13-5.7 181.63-6.95L181.63-6.95 181.63-14.05 174.08-14.05 174.08-19.2 187.18-19.2 187.18-4.8Q185.38-2.55 181.76-1.03 178.13 0.5 173.38 0.5L173.38 0.5ZM203.23 0.5Q200.13 0.5 197.51-0.98 194.88-2.45 193.31-5.18 191.73-7.9 191.73-11.55L191.73-11.55Q191.73-15.15 193.11-17.85 194.48-20.55 197.03-22.05 199.58-23.55 203.03-23.55L203.03-23.55Q205.03-23.55 206.78-22.85 208.53-22.15 209.73-21.13 210.93-20.1 211.33-19.1L211.33-19.1 211.43-22.95 216.58-22.95 216.58 0 211.48 0 211.38-4.05Q210.53-2.25 208.28-0.88 206.03 0.5 203.23 0.5L203.23 0.5ZM204.13-4Q206.98-4 208.93-5.98 210.88-7.95 210.88-11.15L210.88-11.15 210.88-11.5Q210.88-13.65 209.98-15.35 209.08-17.05 207.53-18 205.98-18.95 204.13-18.95L204.13-18.95Q200.93-18.95 199.18-16.88 197.43-14.8 197.43-11.5L197.43-11.5Q197.43-8.15 199.16-6.08 200.88-4 204.13-4L204.13-4ZM224.28 0L224.28-36.75 229.63-36.75 229.63 0 224.28 0ZM237.68 0L237.68-36.75 243.03-36.75 243.03 0 237.68 0ZM261.47 0.5Q257.37 0.5 254.62-1.13 251.87-2.75 250.57-5.48 249.27-8.2 249.27-11.45L249.27-11.45Q249.27-15.1 250.8-17.85 252.32-20.6 255.02-22.08 257.72-23.55 261.12-23.55L261.12-23.55Q266.42-23.55 269-20.63 271.57-17.7 271.57-12.4L271.57-12.4Q271.57-11.05 271.42-9.6L271.42-9.6 254.92-9.6Q255.47-6.55 257.1-5.2 258.72-3.85 261.62-3.85L261.62-3.85Q264.02-3.85 265.57-4.25 267.12-4.65 268.42-5.35L268.42-5.35 270.07-1.5Q268.82-0.7 266.67-0.1 264.52 0.5 261.47 0.5L261.47 0.5ZM254.92-13.35L266.32-13.35Q266.37-16.45 264.97-17.73 263.57-19 260.97-19L260.97-19Q255.72-19 254.92-13.35L254.92-13.35ZM277.07 0L277.07-22.95 282.47-22.95 282.47-18.45Q283.27-20.75 285.07-22.15 286.87-23.55 289.17-23.55L289.17-23.55Q290.77-23.55 291.37-23.25L291.37-23.25 290.62-17.8Q290.17-18.1 288.67-18.1L288.67-18.1Q286.32-18.1 284.4-16.6 282.47-15.1 282.47-11.8L282.47-11.8 282.47 0 277.07 0ZM296.82 12.6L301.77 0.7 292.27-22.95 298.37-22.95 303.27-8.35 304.37-4.8 305.47-8.35 310.62-22.95 316.52-22.95 302.42 12.6 296.82 12.6Z" opacity="1" transform="matrix(1,0,0,1,0,0)" fill="#ffffff" class="slogan-text-1" data-fill-palette-color="secondary" id="text-1"></path></svg></g></svg></g></svg></g></svg></g><g transform="matrix(1,0,0,1,82.6788697673374,0)"><svg viewBox="0 0 230.16226046532518 230.16226046532518" height="230.16226046532518" width="230.16226046532518"><g><svg></svg></g><g id="icon-0"><svg viewBox="0 0 230.16226046532518 230.16226046532518" height="230.16226046532518" width="230.16226046532518"><g><path d="M0 115.081c0-63.558 51.524-115.081 115.081-115.081 63.558 0 115.081 51.524 115.081 115.081 0 63.558-51.524 115.081-115.081 115.081-63.558 0-115.081-51.524-115.081-115.081zM115.081 225.496c60.98 0 110.415-49.434 110.415-110.415 0-60.98-49.434-110.415-110.415-110.415-60.98 0-110.415 49.434-110.415 110.415 0 60.98 49.434 110.415 110.415 110.415z" data-fill-palette-color="accent" fill="#ffffff" stroke="transparent"></path><ellipse rx="113.93031893033596" ry="113.93031893033596" cx="115.08113023266259" cy="115.08113023266259" fill="#ffffff" stroke="transparent" stroke-width="0" fill-opacity="1" data-fill-palette-color="accent"></ellipse></g><g transform="matrix(1,0,0,1,45.88592094706928,45.94294996571125)"><svg viewBox="0 0 138.39041857118661 138.27636053390268" height="138.27636053390268" width="138.39041857118661"><g><svg xmlns="http://www.w3.org/2000/svg" xmlns:xlink="http://www.w3.org/1999/xlink" version="1.1" x="0" y="0" viewBox="4.499999999999999 4.499999999999999 91 90.92500000000001" enable-background="new 0 0 100 100" xml:space="preserve" height="138.27636053390268" width="138.39041857118661" class="icon-dxe-0" data-fill-palette-color="quaternary" id="dxe-0"><path d="M47.9 21.2V11.8L45 14.7C44.2 15.5 42.8 15.5 42 14.7S41.2 12.5 42 11.7L48.6 5.1C49.4 4.3 50.8 4.3 51.6 5.1L58.2 11.7C59 12.5 59 13.9 58.2 14.7 57.8 15.1 57.2 15.3 56.7 15.3S55.6 15.1 55.2 14.7L52.3 11.8V21.2C52.3 22.4 51.3 23.3 50.2 23.3 48.8 23.3 47.9 22.3 47.9 21.2M58.7 71C55.9 72.2 53 72.7 50 72.7 40.8 72.7 32.5 67.2 29 58.6 26.7 53 26.7 46.8 29 41.2S35.7 31.2 41.3 28.9C44.1 27.7 47 27.2 50 27.2 59.2 27.2 67.5 32.7 71 41.3 73.3 46.9 73.3 53.1 71 58.7S64.3 68.7 58.7 71M36.9 55.8C36.5 53.8 36.3 51.8 36.3 50 36.3 48.1 36.5 46.2 36.8 44.3H32.5C31.3 48.1 31.3 52.1 32.5 55.8zM41.2 55.8H47.9V44.2H41.1C40.7 46 40.5 48 40.5 49.9S40.8 53.8 41.2 55.8M63.5 44.2C63.8 46.1 64 48 64 49.9 64 51.7 63.8 53.7 63.4 55.7H67.6C68.8 51.9 68.8 47.9 67.6 44.2zM59.2 44.2H52.2V55.7H59C59.4 53.8 59.7 51.8 59.7 49.9S59.5 46.1 59.2 44.2M52.1 67.7C54.2 66.5 56.2 63.6 57.7 60H52.1zM58 40C56.6 36.2 54.5 33.2 52.1 32.1V40zM42.2 40H47.8V32.2C45.6 33.4 43.6 36.3 42.2 40M42.5 60C42.9 60.9 43.2 61.8 43.7 62.6 45 65 46.4 66.7 47.9 67.7V60zM65.6 60H62.3C61.6 62.1 60.7 64.1 59.7 65.8 62 64.4 64 62.4 65.6 60M60.1 34.5C61 36.2 61.8 38 62.4 40H65.5C64.1 37.8 62.3 35.9 60.1 34.5M34.4 40H37.7C38.3 37.9 39.2 36 40.2 34.3 37.9 35.7 35.9 37.7 34.4 40M40.8 66C39.7 64.2 38.8 62.1 38 60H34.5C36.1 62.5 38.2 64.6 40.8 66M51.5 94.8L58.1 88.2C58.9 87.4 58.9 86 58.1 85.2S55.9 84.4 55.1 85.2L52.2 88.1V78.7C52.2 77.5 51.2 76.6 50.1 76.6 48.9 76.6 48 77.6 48 78.7V88.1L45.1 85.2C44.3 84.4 42.9 84.4 42.1 85.2S41.3 87.4 42.1 88.2L48.7 94.8C49.1 95.2 49.7 95.4 50.2 95.4 50.5 95.5 51.1 95.3 51.5 94.8M11.8 52.1H21.2C22.4 52.1 23.3 51.1 23.3 50S22.3 47.9 21.2 47.9H11.8L14.7 45C15.5 44.2 15.5 42.8 14.7 42S12.5 41.2 11.7 42L5.1 48.6C4.3 49.4 4.3 50.8 5.1 51.6L11.7 58.2C12.1 58.6 12.7 58.8 13.2 58.8S14.3 58.6 14.7 58.2C15.5 57.4 15.5 56 14.7 55.2zM85.3 58.1C85.7 58.5 86.3 58.7 86.8 58.7S87.9 58.5 88.3 58.1L94.9 51.5C95.7 50.7 95.7 49.3 94.9 48.5L88.3 41.9C87.5 41.1 86.1 41.1 85.3 41.9S84.5 44.1 85.3 44.9L88.2 47.8H78.8C77.6 47.8 76.7 48.8 76.7 49.9S77.7 52 78.8 52H88.2L85.3 54.9C84.5 55.9 84.5 57.2 85.3 58.1M19.4 30.8C20.6 30.8 21.5 29.8 21.5 28.7V24.5L28.1 31.1C28.5 31.5 29.1 31.7 29.6 31.7S30.7 31.5 31.1 31.1C31.9 30.3 31.9 28.9 31.1 28.1L24.5 21.5H28.7C29.9 21.5 30.8 20.5 30.8 19.4S29.8 17.3 28.7 17.3H19.4C18.2 17.3 17.3 18.3 17.3 19.4V28.7C17.2 29.8 18.2 30.8 19.4 30.8M69.2 80.6C69.2 81.8 70.2 82.7 71.3 82.7H80.6C81.8 82.7 82.7 81.7 82.7 80.6V71.3C82.7 70.1 81.7 69.2 80.6 69.2 79.4 69.2 78.5 70.2 78.5 71.3V75.5L71.9 68.9C71.1 68.1 69.7 68.1 68.9 68.9S68.1 71.1 68.9 71.9L75.5 78.5H71.3C70.2 78.5 69.2 79.5 69.2 80.6M30.8 80.6C30.8 79.4 29.8 78.5 28.7 78.5H24.5L31.1 71.9C31.9 71.1 31.9 69.7 31.1 68.9S28.9 68.1 28.1 68.9L21.5 75.5V71.3C21.5 70.1 20.5 69.2 19.4 69.2S17.3 70.2 17.3 71.3V80.6C17.3 81.8 18.3 82.7 19.4 82.7H28.7C29.8 82.8 30.8 81.8 30.8 80.6M80.6 30.8C81.8 30.8 82.7 29.8 82.7 28.7V19.4C82.7 18.2 81.7 17.3 80.6 17.3H71.3C70.1 17.3 69.2 18.3 69.2 19.4S70.2 21.5 71.3 21.5H75.5L68.9 28.1C68.1 28.9 68.1 30.3 68.9 31.1 69.3 31.5 69.9 31.7 70.4 31.7S71.5 31.5 71.9 31.1L78.5 24.5V28.7C78.5 29.8 79.5 30.8 80.6 30.8" fill="#398378" data-fill-palette-color="quaternary"></path></svg></g></svg></g></svg></g></svg></g><g></g></svg></g><defs></defs></svg><rect width="278.92835018650834" height="247.2" fill="none" stroke="none" visibility="hidden"></rect></g></svg></g></svg>